<svg width="37" height="37" viewBox="0 0 37 37" fill="none" xmlns="http://www.w3.org/2000/svg">
<circle cx="18.5" cy="18.5" r="18" fill="#1A8F82" stroke="white"/>
<path d="M10.1173 24.4H17.4773L13.2373 12.74L8.77734 25H8.13734L13.2373 10.98L18.3373 25H10.1173V24.4ZM25.6353 18.28L25.3353 17.76L26.4553 17.12C27.3753 16.6133 27.8353 15.8067 27.8353 14.7C27.8353 12.6333 26.262 11.6 23.1153 11.6H21.2753V25H20.6753V11H23.1153C24.8753 11 26.202 11.3267 27.0953 11.98C27.9886 12.62 28.4353 13.5267 28.4353 14.7C28.4353 16.0333 27.8753 17.0133 26.7553 17.64L25.6353 18.28Z" fill="white"/>
<path d="M10.1173 24.4V23.9H9.61734V24.4H10.1173ZM17.4773 24.4V24.9H18.1912L17.9472 24.2291L17.4773 24.4ZM13.2373 12.74L13.7072 12.5691L13.2374 11.2772L12.7675 12.5691L13.2373 12.74ZM8.77734 25V25.5H9.12751L9.24722 25.1709L8.77734 25ZM8.13734 25L7.66747 24.8291L7.42341 25.5H8.13734V25ZM13.2373 10.98L13.7072 10.8091L13.2373 9.51737L12.7675 10.8091L13.2373 10.98ZM18.3373 25V25.5H19.0513L18.8072 24.8291L18.3373 25ZM10.1173 25H9.61734V25.5H10.1173V25ZM10.1173 24.9H17.4773V23.9H10.1173V24.9ZM17.9472 24.2291L13.7072 12.5691L12.7674 12.9109L17.0074 24.5709L17.9472 24.2291ZM12.7675 12.5691L8.30747 24.8291L9.24722 25.1709L13.7072 12.9109L12.7675 12.5691ZM8.77734 24.5H8.13734V25.5H8.77734V24.5ZM8.60722 25.1709L13.7072 11.1509L12.7675 10.8091L7.66747 24.8291L8.60722 25.1709ZM12.7675 11.1509L17.8675 25.1709L18.8072 24.8291L13.7072 10.8091L12.7675 11.1509ZM18.3373 24.5H10.1173V25.5H18.3373V24.5ZM10.6173 25V24.4H9.61734V25H10.6173ZM25.6353 18.28L25.2022 18.5299L25.4511 18.9612L25.8834 18.7141L25.6353 18.28ZM25.3353 17.76L25.0872 17.3259L24.6513 17.575L24.9022 18.0099L25.3353 17.76ZM26.4553 17.12L26.2141 16.682L26.2072 16.6859L26.4553 17.12ZM21.2753 11.6V11.1H20.7753V11.6H21.2753ZM21.2753 25V25.5H21.7753V25H21.2753ZM20.6753 25H20.1753V25.5H20.6753V25ZM20.6753 11V10.5H20.1753V11H20.6753ZM27.0953 11.98L26.8001 12.3836L26.8041 12.3865L27.0953 11.98ZM26.7553 17.64L26.5112 17.2036L26.5072 17.2059L26.7553 17.64ZM26.0684 18.0301L25.7684 17.5101L24.9022 18.0099L25.2022 18.5299L26.0684 18.0301ZM25.5834 18.1941L26.7034 17.5541L26.2072 16.6859L25.0872 17.3259L25.5834 18.1941ZM26.6965 17.558C27.2264 17.2662 27.6433 16.8761 27.9247 16.3827C28.2053 15.8906 28.3353 15.3235 28.3353 14.7H27.3353C27.3353 15.1832 27.2354 15.5727 27.056 15.8873C26.8774 16.2005 26.6043 16.4672 26.2141 16.682L26.6965 17.558ZM28.3353 14.7C28.3353 13.5178 27.8728 12.5764 26.9298 11.9571C26.0235 11.3618 24.7275 11.1 23.1153 11.1V12.1C24.6498 12.1 25.7138 12.3548 26.3808 12.7929C27.0112 13.2069 27.3353 13.8155 27.3353 14.7H28.3353ZM23.1153 11.1H21.2753V12.1H23.1153V11.1ZM20.7753 11.6V25H21.7753V11.6H20.7753ZM21.2753 24.5H20.6753V25.5H21.2753V24.5ZM21.1753 25V11H20.1753V25H21.1753ZM20.6753 11.5H23.1153V10.5H20.6753V11.5ZM23.1153 11.5C24.8272 11.5 26.0297 11.8201 26.8002 12.3836L27.3905 11.5764C26.3742 10.8332 24.9235 10.5 23.1153 10.5V11.5ZM26.8041 12.3865C27.5563 12.9253 27.9353 13.6751 27.9353 14.7H28.9353C28.9353 13.3783 28.421 12.3147 27.3865 11.5735L26.8041 12.3865ZM27.9353 14.7C27.9353 15.2955 27.8108 15.7851 27.5812 16.1869C27.3522 16.5877 27.003 16.9285 26.5112 17.2037L26.9995 18.0763C27.6276 17.7249 28.1185 17.2623 28.4494 16.6831C28.7798 16.1049 28.9353 15.4378 28.9353 14.7H27.9353ZM26.5072 17.2059L25.3872 17.8459L25.8834 18.7141L27.0034 18.0741L26.5072 17.2059Z" fill="white"/>
</svg>
