<?xml version="1.0" encoding="UTF-8"?>
<svg xmlns="http://www.w3.org/2000/svg" xmlns:xlink="http://www.w3.org/1999/xlink" width="256pt" height="256pt" viewBox="0 0 256 256" version="1.1">
<g id="surface4515">
<path style=" stroke:none;fill-rule:nonzero;fill:rgb(0%,0%,0%);fill-opacity:1;" d="M 128 57.34375 C 57.320312 57.34375 0 87.457031 0 124.65625 C 0 161.855469 57.320312 191.984375 128 191.984375 C 198.679688 191.984375 256 161.855469 256 124.65625 C 256 87.457031 198.679688 57.34375 128 57.34375 Z M 128 64.0625 C 196.558594 64.0625 249.28125 92.9375 249.28125 124.65625 C 249.28125 156.375 196.519531 185.265625 128 185.265625 C 59.441406 185.265625 6.71875 156.375 6.71875 124.65625 C 6.71875 92.9375 59.480469 64.0625 128 64.0625 Z M 112.453125 77.40625 L 99.515625 144.125 L 113.953125 144.125 L 121.40625 105.890625 C 133.160156 105.890625 138.019531 105.421875 140.15625 107.71875 C 142.371094 110.09375 141.238281 112.699219 135.140625 144.125 L 149.78125 144.125 C 156.117188 111.636719 158.917969 104.742188 153.0625 99.359375 C 147.488281 94.214844 135.933594 95.125 123.46875 95.125 L 126.90625 77.40625 Z M 51.90625 95.171875 L 38.953125 161.9375 L 53.484375 161.9375 L 56.921875 144.203125 C 73.1875 144.203125 83.289062 145.382812 92.625 136.640625 C 102.953125 127.144531 105.648438 110.246094 98.28125 101.78125 C 94.441406 97.347656 88.257812 95.171875 79.875 95.171875 Z M 165.4375 95.171875 L 152.46875 161.9375 L 167.03125 161.9375 L 170.46875 144.203125 C 187.566406 144.203125 197.027344 145.191406 206.171875 136.640625 C 216.5 127.144531 219.195312 110.246094 211.828125 101.78125 C 207.988281 97.347656 201.804688 95.171875 193.421875 95.171875 Z M 74.6875 105.6875 C 83.765625 105.941406 88.960938 107.867188 86.765625 119.265625 C 83.636719 135.296875 72.605469 133.640625 59.03125 133.640625 L 64.453125 105.703125 C 68.214844 105.703125 71.660156 105.601562 74.6875 105.6875 Z M 188.234375 105.6875 C 197.324219 105.941406 202.460938 107.867188 200.265625 119.265625 C 197.097656 135.53125 185.746094 133.640625 172.53125 133.640625 L 177.953125 105.703125 C 181.734375 105.703125 185.203125 105.601562 188.234375 105.6875 Z M 188.234375 105.6875 "/>
</g>
</svg>
