<?xml version="1.0" encoding="UTF-8"?>
<svg xmlns="http://www.w3.org/2000/svg" xmlns:xlink="http://www.w3.org/1999/xlink" width="250pt" height="250pt" viewBox="0 0 250 250" version="1.1">
<g id="surface653417">
<path style=" stroke:none;fill-rule:nonzero;fill:rgb(40%,40%,40%);fill-opacity:1;" d="M 172.773438 19.921875 C 168.875 19.789062 164.792969 20.46875 160.703125 21.796875 C 152.519531 24.449219 143.945312 29.621094 135.144531 36.777344 C 131.699219 39.582031 128.21875 42.789062 124.726562 46.191406 C 121.3125 42.875 117.902344 39.746094 114.53125 37 C 105.738281 29.851562 97.1875 24.6875 89.023438 22.039062 C 80.859375 19.394531 72.734375 19.3125 66.066406 23.164062 C 59.394531 27.015625 55.402344 34.085938 53.613281 42.480469 C 51.824219 50.875 52.011719 60.871094 53.808594 72.058594 C 54.433594 75.949219 55.332031 80.023438 56.347656 84.179688 C 52.535156 85.335938 48.832031 86.550781 45.402344 87.890625 C 35.039062 91.9375 26.46875 96.777344 20.222656 102.539062 C 13.980469 108.300781 9.949219 115.292969 9.949219 122.96875 C 9.949219 130.644531 13.980469 137.628906 20.222656 143.386719 C 26.46875 149.148438 35.039062 154 45.402344 158.046875 C 49.070312 159.480469 53.046875 160.773438 57.148438 161.992188 C 55.671875 167.507812 54.476562 172.855469 53.660156 177.929688 C 51.863281 189.128906 51.671875 199.125 53.464844 207.539062 C 55.261719 215.953125 59.253906 223.0625 65.957031 226.933594 C 72.660156 230.804688 80.820312 230.710938 89.003906 228.054688 C 97.1875 225.402344 105.75 220.242188 114.550781 213.085938 C 117.96875 210.304688 121.421875 207.136719 124.882812 203.769531 C 128.359375 207.15625 131.832031 210.34375 135.261719 213.132812 C 144.054688 220.285156 152.617188 225.449219 160.78125 228.09375 C 168.945312 230.742188 177.058594 230.824219 183.730469 226.972656 C 190.402344 223.121094 194.390625 216.050781 196.179688 207.65625 C 197.972656 199.261719 197.773438 189.265625 195.976562 178.074219 C 195.160156 172.988281 193.964844 167.632812 192.480469 162.097656 C 196.71875 160.847656 200.820312 159.523438 204.597656 158.046875 C 214.960938 154 223.53125 149.148438 229.773438 143.386719 C 236.019531 137.628906 240.046875 130.644531 240.046875 122.96875 C 240.046875 115.292969 236.019531 108.300781 229.773438 102.539062 C 223.53125 96.777344 214.960938 91.9375 204.597656 87.890625 C 201.117188 86.53125 197.359375 85.300781 193.484375 84.128906 C 194.507812 79.949219 195.417969 75.84375 196.042969 71.933594 C 197.84375 60.734375 198.035156 50.726562 196.238281 42.3125 C 194.445312 33.902344 190.445312 26.800781 183.738281 22.929688 C 180.386719 20.996094 176.671875 20.054688 172.773438 19.921875 Z M 172.316406 30.097656 C 174.761719 30.164062 176.847656 30.746094 178.632812 31.777344 C 182.203125 33.839844 184.84375 37.851562 186.25 44.453125 C 187.65625 51.054688 187.609375 59.976562 185.949219 70.324219 C 185.378906 73.863281 184.550781 77.617188 183.613281 81.464844 C 173.386719 79.003906 162.183594 77.175781 150.246094 76.105469 C 144.246094 67.792969 138.078125 60.230469 131.867188 53.515625 C 135.152344 50.308594 138.414062 47.308594 141.601562 44.71875 C 149.730469 38.105469 157.425781 33.605469 163.847656 31.523438 C 167.058594 30.484375 169.867188 30.03125 172.316406 30.097656 Z M 77.433594 30.125 C 79.890625 30.058594 82.707031 30.507812 85.925781 31.550781 C 92.367188 33.640625 100.078125 38.136719 108.214844 44.753906 C 111.335938 47.296875 114.527344 50.230469 117.746094 53.359375 C 111.484375 60.128906 105.277344 67.769531 99.238281 76.152344 C 87.339844 77.246094 76.175781 79.089844 65.996094 81.5625 C 65.0625 77.734375 64.25 73.996094 63.683594 70.46875 C 62.019531 60.113281 61.976562 51.183594 63.390625 44.5625 C 64.800781 37.9375 67.460938 33.90625 71.066406 31.828125 C 72.867188 30.785156 74.972656 30.195312 77.433594 30.128906 Z M 124.882812 60.714844 C 128.957031 65.144531 133.03125 69.996094 137.070312 75.214844 C 133.101562 75.050781 129.082031 74.953125 125 74.953125 C 120.835938 74.953125 116.742188 75.050781 112.695312 75.226562 C 116.738281 70 120.808594 65.148438 124.882812 60.714844 Z M 125 85.050781 C 131.800781 85.050781 138.425781 85.328125 144.871094 85.800781 C 149.308594 92.171875 153.644531 98.929688 157.773438 106.085938 C 161.402344 112.371094 164.6875 118.644531 167.675781 124.84375 C 164.65625 131.125 161.316406 137.484375 157.636719 143.859375 C 154.398438 149.46875 151.015625 154.792969 147.578125 159.933594 C 140.296875 160.539062 132.75 160.878906 125 160.878906 C 117.0625 160.878906 109.347656 160.519531 101.902344 159.882812 C 98.523438 154.820312 95.199219 149.5625 92.011719 144.042969 C 88.339844 137.683594 85.019531 131.34375 82 125.078125 C 85.03125 118.777344 88.367188 112.390625 92.058594 105.996094 C 96.167969 98.878906 100.492188 92.160156 104.902344 85.820312 C 111.417969 85.335938 118.121094 85.050781 125 85.050781 Z M 157.753906 87.050781 C 165.992188 88.078125 173.726562 89.507812 180.929688 91.222656 C 178.789062 98.226562 176.160156 105.542969 172.96875 113.097656 C 170.898438 109.105469 168.753906 105.097656 166.4375 101.085938 C 163.628906 96.222656 160.710938 91.578125 157.753906 87.050781 Z M 91.71875 87.128906 C 88.824219 91.574219 85.972656 96.121094 83.222656 100.890625 C 80.875 104.953125 78.6875 109.015625 76.59375 113.058594 C 73.429688 105.550781 70.8125 98.273438 68.691406 91.308594 C 75.839844 89.59375 83.535156 88.167969 91.71875 87.128906 Z M 190.820312 93.878906 C 194.363281 94.949219 197.789062 96.070312 200.925781 97.296875 C 210.476562 101.023438 218.035156 105.441406 222.929688 109.960938 C 227.824219 114.480469 229.953125 118.789062 229.953125 122.96875 C 229.953125 127.148438 227.824219 131.457031 222.929688 135.976562 C 218.035156 140.496094 210.476562 144.914062 200.925781 148.640625 C 197.4375 150.003906 193.605469 151.242188 189.621094 152.410156 C 186.777344 143.617188 183.148438 134.445312 178.828125 125.078125 C 183.792969 114.324219 187.804688 103.839844 190.820312 93.878906 Z M 59.011719 93.925781 C 61.992188 103.789062 65.953125 114.171875 70.847656 124.816406 C 66.503906 134.234375 62.855469 143.460938 60 152.304688 C 56.15625 151.164062 52.449219 149.960938 49.074219 148.644531 C 39.523438 144.914062 31.964844 140.496094 27.070312 135.976562 C 22.175781 131.457031 20.050781 127.148438 20.050781 122.96875 C 20.050781 118.789062 22.175781 114.480469 27.070312 109.960938 C 31.964844 105.441406 39.523438 101.023438 49.074219 97.296875 C 52.164062 96.085938 55.53125 94.984375 59.015625 93.925781 Z M 125 100 C 111.253906 100 100 111.253906 100 125 C 100 138.746094 111.253906 150 125 150 C 138.746094 150 150 138.746094 150 125 C 150 111.253906 138.746094 100 125 100 Z M 125 110 C 133.34375 110 140 116.65625 140 125 C 140 133.34375 133.34375 140 125 140 C 116.65625 140 110 133.34375 110 125 C 110 116.65625 116.65625 110 125 110 Z M 173.097656 136.816406 C 175.71875 143.023438 177.996094 149.09375 179.914062 154.953125 C 173.898438 156.34375 167.496094 157.519531 160.761719 158.449219 C 162.699219 155.355469 164.613281 152.203125 166.484375 148.964844 C 168.828125 144.90625 171.003906 140.851562 173.097656 136.816406 Z M 76.707031 136.824219 C 78.8125 140.886719 81 144.957031 83.359375 149.042969 C 85.207031 152.242188 87.089844 155.363281 89.003906 158.417969 C 82.289062 157.488281 75.90625 156.308594 69.914062 154.910156 C 71.816406 149.074219 74.097656 143.015625 76.710938 136.824219 Z M 67.03125 164.621094 C 76.082031 166.761719 85.886719 168.410156 96.289062 169.484375 C 103.234375 179.527344 110.464844 188.546875 117.746094 196.4375 C 114.488281 199.609375 111.261719 202.589844 108.105469 205.15625 C 99.976562 211.769531 92.273438 216.257812 85.851562 218.339844 C 79.425781 220.421875 74.632812 220.148438 71.066406 218.085938 C 67.496094 216.023438 64.863281 212.011719 63.457031 205.410156 C 62.050781 198.808594 62.089844 189.894531 63.75 179.550781 C 64.503906 174.859375 65.628906 169.832031 67.03125 164.621094 Z M 182.800781 164.660156 C 184.214844 169.898438 185.34375 174.949219 186.105469 179.667969 C 187.765625 190.023438 187.808594 198.945312 186.394531 205.566406 C 184.984375 212.1875 182.332031 216.230469 178.730469 218.3125 C 175.128906 220.390625 170.296875 220.671875 163.855469 218.585938 C 157.417969 216.496094 149.707031 211.988281 141.570312 205.371094 C 138.390625 202.785156 135.144531 199.792969 131.863281 196.59375 C 139.191406 188.671875 146.476562 179.605469 153.464844 169.503906 C 163.894531 168.4375 173.730469 166.800781 182.800781 164.660156 Z M 109.335938 170.507812 C 114.46875 170.789062 119.671875 170.976562 125 170.976562 C 130.152344 170.976562 135.183594 170.800781 140.15625 170.535156 C 135.074219 177.394531 129.894531 183.625 124.738281 189.238281 C 119.582031 183.613281 114.410156 177.371094 109.335938 170.507812 Z M 109.335938 170.507812 "/>
</g>
</svg>
