<?xml version="1.0" encoding="UTF-8"?>
<svg xmlns="http://www.w3.org/2000/svg" xmlns:xlink="http://www.w3.org/1999/xlink" width="256pt" height="256pt" viewBox="0 0 256 256" version="1.1">
<g id="surface640">
<path style=" stroke:none;fill-rule:nonzero;fill:rgb(80%,40%,60%);fill-opacity:1;" d="M 121.15625 40.109375 C 109.851562 39.511719 97.136719 41.246094 84.703125 45.5625 C 64.941406 52.417969 43.570312 63.203125 28.203125 77.25 C 9.945312 93.96875 7.019531 108.519531 8.21875 114.609375 C 12.492188 136.203125 42.941406 150.289062 55.125 160.703125 C 54.523438 161.03125 53.964844 161.3125 53.4375 161.609375 C 47.324219 164.578125 24.652344 176.238281 18.84375 188.78125 C 12.285156 203.003906 19.929688 213.1875 24.953125 214.578125 C 40.625 218.835938 56.132812 211.394531 64.75 198.828125 C 73.375 186.253906 72.335938 169.839844 68.359375 162.359375 C 68.320312 162.246094 68.242188 162.175781 68.203125 162.0625 C 69.777344 161.140625 71.382812 160.21875 73 159.296875 C 76.113281 157.496094 79.148438 155.855469 81.8125 154.421875 C 80.308594 158.382812 79.222656 163.160156 78.65625 170.046875 C 77.984375 178.109375 81.386719 188.542969 85.8125 192.65625 C 87.765625 194.457031 90.121094 194.5 91.578125 194.5 C 96.753906 194.5 99.082031 190.320312 101.65625 185.328125 C 104.839844 179.238281 107.65625 172.171875 107.65625 172.171875 C 107.65625 172.171875 104.140625 191.296875 113.78125 191.296875 C 117.300781 191.296875 120.832031 186.867188 122.40625 184.59375 L 122.40625 184.625 C 122.40625 184.625 122.464844 184.484375 122.65625 184.1875 C 123.03125 183.636719 123.21875 183.3125 123.21875 183.3125 L 123.21875 183.203125 C 124.644531 180.820312 127.765625 175.359375 132.453125 166.34375 C 138.523438 154.6875 144.328125 140.125 144.328125 140.125 C 144.886719 143.324219 145.664062 146.480469 146.65625 149.578125 C 147.703125 153.058594 149.925781 156.875 151.6875 160.578125 C 150.261719 162.480469 149.390625 163.578125 149.390625 163.578125 C 149.390625 163.609375 149.414062 163.640625 149.4375 163.65625 C 148.308594 165.121094 147.03125 166.691406 145.71875 168.234375 C 140.917969 173.808594 135.210938 180.199219 134.46875 182.03125 C 133.566406 184.191406 133.796875 185.800781 135.515625 187.046875 C 136.789062 188 139.054688 188.144531 141.40625 187.96875 C 145.71875 187.671875 148.753906 186.640625 150.21875 185.984375 C 152.914062 185.039062 155.460938 183.742188 157.78125 182.109375 C 162.46875 178.734375 165.328125 173.890625 165.0625 167.515625 C 164.910156 163.996094 163.738281 160.46875 162.3125 157.171875 C 162.726562 156.589844 163.1875 155.96875 163.59375 155.34375 C 171.019531 144.75 176.75 133.125 176.75 133.125 C 177.308594 136.324219 178.085938 139.480469 179.078125 142.578125 C 179.980469 145.546875 181.742188 148.808594 183.359375 152 C 176.390625 157.535156 172.066406 163.957031 170.5625 168.171875 C 167.785156 175.980469 169.972656 179.488281 174.0625 180.296875 C 175.902344 180.664062 178.515625 179.832031 180.46875 179.03125 C 183.363281 178.085938 186.089844 176.714844 188.5625 174.953125 C 193.25 171.578125 197.789062 166.855469 197.484375 160.4375 C 197.371094 157.542969 196.558594 154.644531 195.46875 151.859375 C 201.355469 149.445312 208.996094 148.121094 218.75 149.21875 C 239.628906 151.601562 243.722656 164.359375 242.9375 169.671875 C 242.152344 174.992188 237.761719 177.964844 236.296875 178.84375 C 234.832031 179.722656 234.386719 180.054688 234.5 180.71875 C 234.683594 181.671875 235.355469 181.628906 236.59375 181.40625 C 238.320312 181.109375 247.539062 177.082031 247.953125 167.21875 C 248.554688 154.761719 236.308594 141.058594 214.609375 141.15625 L 214.578125 141.15625 C 207.042969 141.160156 199.617188 142.851562 192.859375 146.109375 C 190.644531 141.75 188.351562 137.933594 187.984375 135.078125 C 187.535156 131.742188 187.058594 129.765625 187.578125 125.8125 C 188.105469 121.851562 190.460938 116.234375 190.421875 115.828125 C 190.382812 115.429688 189.894531 113.414062 185.0625 113.375 C 180.230469 113.335938 176.058594 114.292969 175.578125 115.53125 C 174.722656 117.8125 174.058594 120.148438 173.59375 122.53125 C 172.730469 126.820312 163.921875 142.148438 158.9375 150.140625 C 157.289062 147.019531 155.90625 144.277344 155.609375 142.078125 C 155.160156 138.742188 154.667969 136.765625 155.1875 132.8125 C 155.714844 128.851562 158.085938 123.234375 158.046875 122.828125 C 158.007812 122.429688 157.519531 120.414062 152.6875 120.375 C 147.855469 120.335938 143.675781 121.292969 143.1875 122.53125 C 142.699219 123.777344 142.171875 126.707031 141.203125 129.53125 C 140.226562 132.355469 128.492188 157.882812 125.421875 164.515625 C 123.847656 167.890625 122.492188 170.605469 121.515625 172.4375 C 121.363281 172.734375 121.257812 172.917969 121.1875 173.0625 C 121.300781 172.878906 121.375 172.695312 121.375 172.765625 C 120.550781 174.339844 120.0625 175.21875 120.0625 175.21875 L 120.0625 175.25 C 119.421875 176.425781 118.710938 177.5 118.375 177.5 C 118.152344 177.5 117.660156 174.417969 118.484375 170.203125 C 120.246094 161.332031 124.414062 147.542969 124.375 147.0625 C 124.335938 146.804688 125.144531 144.421875 121.625 143.140625 C 118.207031 141.933594 116.992188 143.953125 116.6875 143.953125 C 116.382812 143.953125 116.15625 144.6875 116.15625 144.6875 C 116.15625 144.6875 119.929688 129.140625 108.875 129.140625 C 101.972656 129.140625 92.367188 136.546875 87.65625 143.25 C 84.695312 144.824219 78.285156 148.242188 71.53125 151.875 C 68.945312 153.265625 66.292969 154.695312 63.78125 156.046875 C 63.597656 155.863281 63.441406 155.683594 63.25 155.5 C 49.824219 141.492188 25.046875 131.589844 26.09375 112.78125 C 26.46875 105.925781 28.917969 87.933594 73.75 66.078125 C 110.503906 48.191406 139.882812 53.09375 144.9375 64.015625 C 152.210938 79.601562 129.222656 108.605469 91.0625 112.78125 C 76.519531 114.355469 69.816406 108.210938 67.90625 106.15625 C 65.921875 103.996094 65.613281 103.882812 64.859375 104.28125 C 63.621094 104.9375 64.410156 106.847656 64.859375 107.984375 C 65.988281 110.878906 71 115.417969 78.984375 117.984375 C 86 120.222656 102.109375 122.105469 122.734375 114.296875 C 145.902344 105.570312 163.601562 81.859375 158.3125 61.515625 C 154.949219 48.589844 140 41.105469 121.15625 40.109375 Z M 108.859375 138.3125 C 109.445312 138.355469 109.882812 138.574219 110.125 138.984375 C 111.4375 141.152344 105.566406 157.109375 104.0625 160.703125 C 101.664062 166.464844 96.59375 181.136719 93.515625 180.359375 C 90.890625 179.703125 89.273438 168.515625 92.984375 157.515625 C 94.855469 151.980469 98.835938 145.378906 101.203125 142.8125 C 104.042969 139.703125 107.101562 138.183594 108.859375 138.3125 Z M 186.78125 156.40625 C 187.222656 157.6875 187.453125 159.03125 187.484375 160.375 C 187.445312 168.632812 181.414062 171.703125 177.78125 172.984375 C 177.027344 172.472656 177.128906 170.742188 179.640625 165.390625 C 180.617188 163.300781 182.878906 159.78125 186.78125 156.40625 Z M 60.828125 165.5 C 63.941406 176.644531 60.945312 186.476562 53.671875 194.21875 C 46.777344 201.585938 37.097656 204.375 32.9375 202.03125 C 28.472656 199.496094 30.238281 188.636719 38.75 180.78125 C 43.925781 176.011719 50.605469 171.617188 55.03125 168.90625 C 56.046875 168.320312 57.496094 167.4375 59.296875 166.375 C 59.601562 166.191406 59.75 166.125 59.75 166.125 C 60.085938 165.910156 60.453125 165.722656 60.828125 165.5 Z M 155.046875 166.78125 C 155.046875 166.964844 155.09375 167.160156 155.09375 167.375 C 155.046875 173.933594 148.585938 178.363281 145.65625 180.125 L 145.6875 180.125 L 145.6875 180.140625 C 144.671875 180.652344 143.730469 180.976562 143.28125 180.71875 C 142.945312 180.535156 143.703125 179.84375 143.703125 179.84375 C 143.703125 179.84375 148.914062 174.371094 150.96875 171.875 C 152.167969 170.410156 153.550781 168.683594 155.046875 166.78125 Z M 155.046875 166.78125 "/>
</g>
</svg>
